# xmcd
#
# Track frame offsets:
#	150
#	15110
#	30200
#	49437
#	63277
#	81286
#	96805
#	112988
#	128460
#	142970
#	159930
#	177101
#	191640
#	208816
#	225169
#	242886
#	256671
#	272222
#	291122
#	305628
#	322189
#	341174
#
# Disc length: 4731 seconds
#
# Revision: 0
# Processed by: cddbd v1.5.2PL0 Copyright (c) Steve Scherf et al.
# Submitted via: EasyCDDAExtractor 10.0.2.1
#
DISCID=29127916
DTITLE=Various Artist - Фабрика Звезд 7
DYEAR=2007
DGENRE=Pop
TTITLE0=Фабрика звезд 7 - Круто ты попал
TTITLE1=BIS - Твой или ничей
TTITLE2=Инь-Янь - Мало-помалу
TTITLE3=Дакота - Одна
TTITLE4=Анастасия Приходько - Вера
TTITLE5=Всеволод Соколовский - Ближе
TTITLE6=Марк Тишман - Пять цветов любви
TTITLE7=Наталья Тумшовец - Шоу-бизнес
TTITLE8=Корнелия Манго - Две половинки
TTITLE9=Георгий Иващенко - Мне оно не нравится
TTITLE10=Дмитрий Бикбаев - Живой цветок
TTITLE11=Аня Колодко - Не половинка
TTITLE12=Сергей Ашихмин - Черная кошка
TTITLE13=Артем Иванов - Все мине
TTITLE14=Георгий Иващенко - Не обласканный
TTITLE15=Екатерина Цыпина - Друга нет
TTITLE16=Анастасия Приходько - Группа крови
TTITLE17=Марк Тишман - Я стану твоим ангелом
TTITLE18=Всеволод Соколовский - Поп-корн
TTITLE19=Дакота - Спички
TTITLE20=Татьяна Богачева - Все сделала сама
TTITLE21=Фабрика Звезд 7 - Студент
EXTD=
EXTT0=
EXTT1=
EXTT2=
EXTT3=
EXTT4=
EXTT5=
EXTT6=
EXTT7=
EXTT8=
EXTT9=
EXTT10=
EXTT11=
EXTT12=
EXTT13=
EXTT14=
EXTT15=
EXTT16=
EXTT17=
EXTT18=
EXTT19=
EXTT20=
EXTT21=
PLAYORDER=
